<svg width="125" height="25" viewBox="0 0 125 25" fill="none" xmlns="http://www.w3.org/2000/svg">
<path d="M11.3158 24.4499H18.0184L15.8926 22.2459V12.7791C15.8926 8.51618 12.8209 6.57456 9.96679 6.57456C7.75811 6.57456 6.27976 7.46666 4.57746 9.02122V6.64776L0.0116985 8.08969L2.12578 9.49919V22.2459L0 24.4499H6.70324L4.57746 22.2459V9.89259C5.75633 8.66325 7.19625 7.42454 8.95704 7.42454C11.7637 7.42454 13.4409 10.0764 13.4409 12.6401V22.2459L11.3158 24.4499Z" fill="#C6C1C1"/>
<path d="M20.9845 13.789C20.9845 10.0418 23.1006 7.4247 26.1302 7.4247C30.1328 7.4247 34.0608 12.3361 34.0608 17.3404C34.0608 21.0872 31.945 23.7043 28.9155 23.7043C24.9129 23.7043 20.9845 18.793 20.9845 13.789ZM27.4879 6.5052C22.5307 6.5052 18.4981 10.6003 18.4981 15.6344C18.4981 20.5912 22.5622 24.6238 27.5574 24.6238C32.5146 24.6238 36.5476 20.5287 36.5476 15.495C36.5476 10.5378 32.4835 6.5052 27.4879 6.5052Z" fill="#C6C1C1"/>
<path d="M40.6461 13.789C40.6461 10.0418 42.7622 7.42467 45.7917 7.42467C49.7943 7.42467 53.7223 12.336 53.7223 17.3403C53.7223 21.0872 51.6066 23.7043 48.577 23.7043C44.5744 23.7043 40.6461 18.7929 40.6461 13.789ZM47.1494 6.50517C42.1923 6.50517 38.1596 10.6003 38.1596 15.6343C38.1596 20.5912 42.2237 24.6238 47.219 24.6238C52.1761 24.6238 56.2091 20.5287 56.2091 15.495C56.2091 10.5378 52.145 6.50517 47.1494 6.50517Z" fill="#C6C1C1"/>
<path d="M67.2948 6.64576C64.2495 7.02646 62.1221 7.74943 61.2664 9.9317V6.613L56.7007 8.05492L58.8151 9.46443V22.2459L56.6893 24.4499H63.3922L61.2664 22.2459V12.0829C61.2664 11.5056 61.481 11.006 61.9042 10.5968C62.7839 9.74586 64.5654 9.29998 66.7888 9.37452L66.9395 9.37953L67.5495 6.614L67.2948 6.64576Z" fill="#C6C1C1"/>
<path d="M74.5994 13.9809L74.1672 13.7964L74.1655 13.7958C72.4001 13.0541 69.4373 11.5333 69.4373 9.68056C69.4373 8.15943 71.3101 7.25062 73.1207 7.25062C73.9336 7.25062 74.6342 7.40337 75.3879 7.74496L79.3787 11.31L78.3132 6.67906H73.1207C70.3455 6.67906 68.5526 8.25335 68.5526 10.6903C68.5526 13.7048 71.9144 15.6221 73.9142 16.4948L74.0823 16.5737C76.2743 17.5994 79.2758 19.0046 79.2758 20.9262C79.2758 22.7739 77.0668 23.8782 74.9313 23.8782C74.0696 23.8782 72.8834 23.6456 72.0331 23.311L67.9142 19.6925L68.9714 24.4498H74.9313C77.9816 24.4498 80.1956 22.6311 80.1956 20.1253C80.1956 16.3594 77.0925 15.0405 74.5994 13.9809Z" fill="#C6C1C1"/>
<path d="M96.9391 24.4499L95.076 22.4244L89.4758 10.8803C91.6056 9.1723 93.0498 8.48977 96.1506 7.02412L96.8816 6.67918H91.0467L92.0942 8.36276C89.5747 9.80702 86.496 12.2834 85.2526 14.9574V0L80.6838 1.40282L82.8013 2.81466V22.2118L80.6812 24.4499H87.3734L85.2526 22.2118V17.5839C85.2526 15.4948 86.871 13.4576 87.6007 12.6457L92.4789 22.7389L90.8869 24.4499H96.9391Z" fill="#C6C1C1"/>
<path d="M103.129 22.2461L105.255 24.4502H98.5518L100.677 22.2461V9.46486L98.5635 8.05471L103.129 6.6133V22.2461Z" fill="#C6C1C1"/>
<path d="M101.621 1.10842C102.585 1.10842 103.369 1.89259 103.369 2.85647C103.369 3.82042 102.585 4.60451 101.621 4.60451C100.657 4.60436 99.873 3.82033 99.873 2.85647C99.8731 1.89268 100.657 1.10857 101.621 1.10842Z" fill="#C6C1C1"/>
<path d="M118.183 24.4499H124.885L122.759 22.2459V12.7791C122.759 8.51618 119.688 6.57456 116.834 6.57456C114.625 6.57456 113.146 7.46666 111.444 9.02122V6.64776L106.878 8.08969L108.993 9.49919V22.2459L106.867 24.4499H113.57L111.444 22.2459V9.89259C112.623 8.66325 114.063 7.42454 115.824 7.42454C118.63 7.42454 120.308 10.0764 120.308 12.6401V22.2459L118.183 24.4499Z" fill="#C6C1C1"/>
</svg>
